# xmcd CD database file
#
# Track frame offsets:
#	150
#	13120
#	23614
#	36165
#	47273
#	59807
#	74239
#	86733
#	98801
#	111354
#	125092
#	140964
#	153445
#	166719
#	181250
#	194046
#
# Disc length: 2751 seconds
#
# Revision: 0
# Processed by: cddbd v1.5.2PL0 Copyright (c) Steve Scherf et al.
# Submitted via: CDex 1.51
#
DISCID=eb0abd10
DTITLE=nova - nova danse 1930
DYEAR=2014
DGENRE=Jazz
TTITLE0=jimmie lunceford and his orchestra - harlem shout
TTITLE1=jimmy noone - you rascal, you
TTITLE2=orchestre typique castellanos de la cabane cubaine - buscandos millionarias
TTITLE3=original memphis five - fireworks
TTITLE4=fats waller - i ain't got nobody
TTITLE5=django reinhardt - minor swing
TTITLE6=stellio - oué oué oué oué
TTITLE7=the mills brothers - i've found a new baby
TTITLE8=bennie moten's kansas city orchestra - rumba negro (spanish stomp)
TTITLE9=the west african instrumental quintet - adersu. n°2
TTITLE10=don azpiazù and his orchestra - el manisero
TTITLE11=cab calloway - jumpin' jive
TTITLE12=carlos molina's tango orchestra - la cumparsita
TTITLE13=freddy johnson - harlem bound
TTITLE14=mildred bailey and dorsey brother's orchestra - doin' the uptown lowdown
TTITLE15=casey bill weldon - you gotta do your duty
EXTD=YEAR: 2014
EXTT0=
EXTT1=
EXTT2=
EXTT3=
EXTT4=
EXTT5=
EXTT6=
EXTT7=
EXTT8=
EXTT9=
EXTT10=
EXTT11=
EXTT12=
EXTT13=
EXTT14=
EXTT15=
PLAYORDER=
